/* XPM */
static char *bitcoin64[] = {
/* columns rows colors chars-per-pixel */
"64 64 48 1 ",
"  c #A1AB63",
". c #A1AB64",
"X c #A2AC65",
"o c #A3AD66",
"O c #A3AD67",
"+ c #A4AD67",
"@ c #A4AD68",
"# c #A4AE69",
"$ c #A5AE69",
"% c #A5AF6A",
"& c #A5AF6B",
"* c #A6B06C",
"= c #A7B06C",
"- c #A6B06D",
"; c #A7B16D",
": c #A7B16E",
"> c #A8B16E",
", c #A8B16F",
"< c #A8B26F",
"1 c #A8B270",
"2 c #A9B270",
"3 c #A9B371",
"4 c #AAB272",
"5 c #AAB372",
"6 c #AAB373",
"7 c #AAB473",
"8 c #ABB473",
"9 c #AAB474",
"0 c #ABB474",
"q c #ABB475",
"w c #ACB574",
"e c #ACB575",
"r c #ACB576",
"t c #ADB577",
"y c #ADB677",
"u c #ADB678",
"i c #AEB678",
"p c #AEB679",
"a c #AEB779",
"s c #AEB77A",
"d c #AFB77A",
"f c #AEB77B",
"g c #AEB87A",
"h c #AFB87A",
"j c #AFB87B",
"k c #B0B87B",
"l c #B0B87C",
"z c None",
/* pixels */
"zzzzzzzzzzzzzzzzzzzzzzzzzzzzzzzzzzzzzzzzzzzzzzzzzzzzzzzzzzzzzzzz",
"zzzzzzzzzzzzzzzzzzzzzzzzzzzzzzzzzzzzzzzzzzzzzzzzzzzzzzzzzzzzzzzz",
"zzzzzzzzzzzzzzzzzzzzzzzzzzzzzzzzzzzzzzzzzzzzzzzzzzzzzzzzzzzzzzzz",
"zzzzzzzzzzzzzzzzzzzzzzzzzzzzzzzzzzzzzzzzzzzzzzzzzzzzzzzzzzzzzzzz",
"zzzzzzzzzzzzzzzzzzzzzzzzzzzzzzzzzzzzzzzzzzzzzzzzzzzzzzzzzzzzzzzz",
"zzzzzzzzzzzzzzzzzzzzzzzzzzzzzzzzzzzzzzzzzzzzzzzzzzzzzzzzzzzzzzzz",
"zzzzzzzzzzzzzzzzzzzzzzzzzzzzzzzzzzzzzzzzzzzzzzzzzzzzzzzzzzzzzzzz",
"zzzzzzzzzzzzzzzzzzzzzzzzzzzzzzzzzzzzzzzzzzzzzzzzzzzzzzzzzzzzzzzz",
"zzzzzzzzzzzzzzzzzzzzzzzzzzzzzzzzzzzzzzzzzzzzzzzzzzzzzzzzzzzzzzzz",
"zzzzzzzzzzzzzzzzzzzzzzzzzzzzzzzzzzzzzzzzzzzzzzzzzzzzzzzzzzzzzzzz",
"zzzzzzzzzzzzzzzzzzzzzzzzzzzzzzzzzzzzzzzzzzzzzzzzzzzzzzzzzzzzzzzz",
"zzzzzzzzzzzzzzzzzzzzzzzzzzzzzzzzzzzzzzzzzzzzzzzzzzzzzzzzzzzzzzzz",
"zzzzzzzzzzzzzzzzzzzzzzzzzzzzzzzzzzzzzzzzzzzzzzzzzzzzzzzzzzzzzzzz",
"zzzzzzzzzzzkkkkkkzzzzzzzzzzzzzzzzzzzzzzzzzzzzzzkkkkkkzzzzzzzzzzz",
"zzzzzzzzzzzhhhhhhzzzzzzzzzzzzzzzzzzzzzzzzzzzzzzhhhhhhzzzzzzzzzzz",
"zzzzzzzzzzzhhhhhhzzzzzzzzzzhhhhhhhhhhzzzzzzzzzzhhhhhhzzzzzzzzzzz",
"zzzzzzzzzzzzhhhhzzzzzzzzkhhkkhkhhkkkhkkkzzzzzzzzhhhhzzzzzzzzzzzz",
"zzzzzzzzzzzzzzzzzzzzzzzlkpapahkpaahpakpklzzzzzzzzzzzzzzzzzzzzzzz",
"zzzzzzzzzzzzzzzzzzzzzzaaaappaaaaaaaaaappaazzzzzzzzzzzzzzzzzzzzzz",
"zzzzzzzzzzzzzzzzzzzzaaaakpppaaaaaaaaaappaaaazzzzzzzzzzzzzzzzzzzz",
"zzzzzzzzzzzzzzzzzzzaaeaaaqppqaaaeppiaaqpaaeaazzzzzzzzzzzzzzzzzzz",
"zzzzzzzzzzzzzzzzzzzeeaaeaaeaaaeaaeaeeaaeeaeaazzzzzzzzzzzzzzzzzzz",
"zzzzzzzzzzzzzzzzzzeaeqeeqeqqqqa0eeeeaqaeaeee00zzzzzzzzzzzzzzzzzz",
"zzzzzzzzzzzzzzzzzaqqaqaeqaeaee00eaeeeqqqqqqaa0azzzzzzzzzzzzzzzzz",
"zzzzzzzzzzzzzzzzeeeeeeea0a00eeeaaqeeaeeeeeea00a0zzzzzzzzzzzzzzzz",
"zzzzzzzzzzzzzzzzeeeeeeee0eeeeeeeeeeeqqeeeeeeeeeezzzzzzzzzzzzzzzz",
"zzzzzzzzzzzzzzzzeeeeeeeeeeeeeeeeeeeeeeeeeeeeeeeezzzzzzzzzzzzzzzz",
"zzzzzzzzzzzzzzzeeeeeeeeeeeeeeeeeeeeeeeeeeeeeeeeeezzzzzzzzzzzzzzz",
"zzzzzzzl0zzzzzz000000000000000008q8qqqq8000000000zzzzzz0lzzzzzzz",
"zzzzzzze8zzzzzz800808888000088888888q588888888888zzzzzz8ezzzzzzz",
"zzz555555zzzzzz5555555555555555555555555555555555zzzzzz555555zzz",
"zz5555555zzzzzz5555555555555555555555555555555555zzzzzz5555555zz",
"zz5555555zzzzzz5555555555555555555555555555555555zzzzzz5555555zz",
"zzz555555zzzzzz5555555555555555555585555555555585zzzzzz555555zzz",
"zzzzzzhq5zzzzzz51815<555<855555<5<5811:8<55555<:5zzzzzz55jzzzzzz",
"zzzzzzza5zzzzzz58:55:5<58:<55<55555:881155<<<5555zzzzzz5azzzzzzz",
"zzzzzzzzzzzzzzz5:8:55<<5:8<<<<<<5<<5<<8:5,<5<<5<<zzzzzzzzzzzzzzz",
"zzzzzzzzzzzzzzzh:<::<<<<:<<<<<<<,<<<<<<:<<<<<<<<hzzzzzzzzzzzzzzz",
"zzzzzzzzzzzzzzzz,<<<,,,,,,<<,,<<,,,,<<:5,,,,,,,,zzzzzzzzzzzzzzzz",
"zzzzzzzzzzzzzzzz,<<<,,,,,,<<,<<<,,,,<<::,,,,,,<5zzzzzzzzzzzzzzzz",
"zzzzzzzzzzzzzzzzq5<<<<<=:::::<<<,,,=:::::<<=<<<ezzzzzzzzzzzzzzzz",
"zzzzzzzzzzzzzzzzzz=<==<=:==:===:&<<=:==:=:<=::zzzzzzzzzzzzzzzzzz",
"zzzzzzzzzzzzzzzzzze&=========================0zzzzzzzzzzzzzzzzzz",
"zzzzzzzzzzzzzzzzzzz:========================:zzzzzzzzzzzzzzzzzzz",
"zzzzzzzzzzzzzzzzzzzz======================:=zzzzzzzzzzzzzzzzzzzz",
"zzzzzzzzzzzzzzzzzzzzzq:&*=**====&&========0zzzzzzzzzzzzzzzzzzzzz",
"zzzzzzzzzzzzz5azzzzzzzz:#*#*#*&&&&&==#*#=zzzzzzzza5zzzzzzzzzzzzz",
"zzzzzzzzzzzz&&&&zzzzzzz5*#*#*#&&&&&+#*#*8zzzzzzz&&&&zzzzzzzzzzzz",
"zzzzzzzzzzz&&&&&&zzzzzzzzze&&&&&&&&&&ezzzzzzzzz&&&&&&zzzzzzzzzzz",
"zzzzzzzzzzz&&+++&azzzzzzzzzzzzzzzzzzzzzzzzzzzza&&+++&zzzzzzzzzzz",
"zzzzzzzzzzz#&+&+#:zzzzzzzzzzzzzzzzzzzzzzzzzzzz:&&+&+#zzzzzzzzzzz",
"zzzzzzzzzz0#O&+&&hzzzzzzzzzzzzzzzzzzzzzzzzzzzza&O&+&#0zzzzzzzzzz",
"zzzzzzzzzz++++++zzzzzzzzzzzzzzzzzzzzzzzzzzzzzzzz++++++zzzzzzzzzz",
"zzzzzzzzzz5+5zzzzzzzzzzzzzzzzzzzzzzzzzzzzzzzzzzzzzz5+5zzzzzzzzzz",
"zzzzzzzzzzzzzzzzzzzzzzzzzzzzazzzzzzazzzzzzzzzzzzzzzzzzzzzzzzzzzz",
"zzzzzzzzzzzzzzzzzzzzzzzzzzzz#OOOOOO#zzzzzzzzzzzzzzzzzzzzzzzzzzzz",
"zzzzzzzzzzzzzzzzzzzzzzzzzzzz<+OOOO&<zzzzzzzzzzzzzzzzzzzzzzzzzzzz",
"zzzzzzzzzzzzzzzzzzzzzzzzzzzzz< O O<zzzzzzzzzzzzzzzzzzzzzzzzzzzzz",
"zzzzzzzzzzzzzzzzzzzzzzzzzzzzzaO O ezzzzzzzzzzzzzzzzzzzzzzzzzzzzz",
"zzzzzzzzzzzzzzzzzzzzzzzzzzzzzz.O Ozzzzzzzzzzzzzzzzzzzzzzzzzzzzzz",
"zzzzzzzzzzzzzzzzzzzzzzzzzzzzzz....zzzzzzzzzzzzzzzzzzzzzzzzzzzzzz",
"zzzzzzzzzzzzzzzzzzzzzzzzzzzzzzz  zzzzzzzzzzzzzzzzzzzzzzzzzzzzzzz",
"zzzzzzzzzzzzzzzzzzzzzzzzzzzzzzzzzzzzzzzzzzzzzzzzzzzzzzzzzzzzzzzz",
"zzzzzzzzzzzzzzzzzzzzzzzzzzzzzzzzzzzzzzzzzzzzzzzzzzzzzzzzzzzzzzzz"
};
