/* XPM */
static char *bitcoin32[] = {
/* columns rows colors chars-per-pixel */
"32 32 31 1 ",
"  c #A2AC65",
". c #A4AD68",
"X c #A4AE69",
"o c #A5AE69",
"O c #A5AF6A",
"+ c #A6AF6B",
"@ c #A6B06C",
"# c #A7B06C",
"$ c #A7B16D",
"% c #A7B16E",
"& c #A8B16F",
"* c #A8B26F",
"= c #A9B371",
"- c #AAB271",
"; c #AAB272",
": c #AAB372",
"> c #AAB373",
", c #ABB473",
"< c #ABB475",
"1 c #ACB575",
"2 c #ACB576",
"3 c #ADB677",
"4 c #AEB679",
"5 c #AEB779",
"6 c #AEB77A",
"7 c #AFB77A",
"8 c #AFB87A",
"9 c #AFB87D",
"0 c #B0B87B",
"q c #B0B87D",
"w c None",
/* pixels */
"wwwwwwwwwwwwwwwwwwwwwwwwwwwwwwww",
"wwwwwwwwwwwwwwwwwwwwwwwwwwwwwwww",
"wwwwwwwwwwwwwwwwwwwwwwwwwwwwwwww",
"wwwwwwwwwwwwwwwwwwwwwwwwwwwwwwww",
"wwwwwwwwwwwwwwwwwwwwwwwwwwwwwwww",
"wwwwwwwwwwwwwwwwwwwwwwwwwwwwwwww",
"wwwwww00wwwwwwwwwwwwwwww00wwwwww",
"wwwwww88wwwwwwwwwwwwwwww80wwwwww",
"wwwwwwwwwwww55777775wwwwwwwwwwww",
"wwwwwwwwwww5555555555wwwwwwwwwww",
"wwwwwwwwww333333533333wwwwwwwwww",
"wwwwwwwww3<3<3<3<3<3<33wwwwwwwww",
"wwwwwwww3<3,3,3,3,3,,3,3wwwwwwww",
"wwwwwwww,3,3,3,3,3,3333,wwwwwwww",
"wwww0www,,,,,,,,,,:,,,,,www0wwww",
"w5::qwww::::::::::::::::wwwq::5w",
"w5::9www::::::::::::::::www9::5w",
"wwww5www:*::*,*:::*::::%www5wwww",
"wwwwwwww%*********%*****wwwwwwww",
"wwwwwwww************&***wwwwwwww",
"wwwwwwwww%%%%@%#%%@@*@%wwwwwwwww",
"wwwwwwwww<#@@@@##+@@##<wwwwwwwww",
"wwwwwwwwww,@@@@@+@@@@3wwwwwwwwww",
"wwwwww:5wwwwX+++++++wwww5*wwwwww",
"wwwwww++5wwwwwwwwwwwwww5++wwwwww",
"wwwww:+ %wwwwwwwwwwwwww%+ :wwwww",
"wwwww+:wwwwwwwwwwwwwwwwww:.wwwww",
"wwwwwwwwwwwwww:::*wwwwwwwwwwwwww",
"wwwwwwwwwwwwww>  :wwwwwwwwwwwwww",
"wwwwwwwwwwwwwww  wwwwwwwwwwwwwww",
"wwwwwwwwwwwwwww++wwwwwwwwwwwwwww",
"wwwwwwwwwwwwwwwwwwwwwwwwwwwwwwww"
};
