/* XPM */
static char *bitcoin16[] = {
/* columns rows colors chars-per-pixel */
"16 16 12 1 ",
"  c #A4AE69",
". c #A6AF6B",
"X c #A7B06D",
"o c #A8B16F",
"O c #A9B371",
"+ c #AAB373",
"@ c #ABB474",
"# c #ACB575",
"$ c #ADB577",
"% c #AEB779",
"& c #AFB87B",
"* c None",
/* pixels */
"****************",
"****************",
"****************",
"***&********&***",
"******%%%%******",
"*****$$$$$$*****",
"****$$$$$@$@****",
"****OOOO++@O****",
"****OOOO+o++****",
"****oooooooo****",
"*****XoXXXX*****",
"****** XXX******",
"*** ******** ***",
"****************",
"*******@@*******",
"****************"
};
